# xmcd CD database file
#
# Track frame offsets:
#	150
#	29402
#	60906
#	109367
#	151333
#	193877
#
# Disc length: 3249 seconds
#
# Revision: 0
# Processed by: cddbd v1.5.1PL0 Copyright (c) Steve Scherf et al.
# Submitted via: CDex 1.51
#
DISCID=4b0caf06
DTITLE=Frederick Rousseau - Spirit In The Woods
DYEAR=1996
DGENRE=New Age
TTITLE0=The Healer Oak
TTITLE1=The Ice Tree
TTITLE2=Worries In The Forest
TTITLE3=Memories Of An Ageless Sequoia
TTITLE4=Cyber-Gingko
TTITLE5=The Flight Of The Sycamore Seed
EXTD=YEAR: 1996
EXTT0=
EXTT1=
EXTT2=
EXTT3=
EXTT4=
EXTT5=
PLAYORDER=
